<mxfile host="65bd71144e">
    <diagram id="HIP3nbAZw_EuaXWnEj3U" name="Page-1">
        <mxGraphModel dx="895" dy="640" grid="1" gridSize="10" guides="1" tooltips="1" connect="1" arrows="1" fold="1" page="1" pageScale="1" pageWidth="850" pageHeight="1100" math="0" shadow="0">
            <root>
                <mxCell id="0"/>
                <mxCell id="1" parent="0"/>
                <mxCell id="7" value="http://ics2o.mths.ca" style="swimlane;whiteSpace=wrap;html=1;" parent="1" vertex="1">
                    <mxGeometry x="40" y="40" width="760" height="480" as="geometry"/>
                </mxCell>
                <mxCell id="15" value="" style="whiteSpace=wrap;html=1;fillColor=#000000;" parent="7" vertex="1">
                    <mxGeometry x="610" y="97.5" width="120" height="115" as="geometry"/>
                </mxCell>
                <mxCell id="8" value="&lt;font style=&quot;font-size: 20px;&quot;&gt;The weather is..&lt;/font&gt;" style="text;html=1;align=center;verticalAlign=middle;resizable=0;points=[];autosize=1;strokeColor=none;fillColor=none;" parent="7" vertex="1">
                    <mxGeometry y="30" width="170" height="40" as="geometry"/>
                </mxCell>
                <mxCell id="9" value="" style="edgeStyle=none;orthogonalLoop=1;jettySize=auto;html=1;endArrow=none;endFill=0;" parent="7" edge="1">
                    <mxGeometry width="100" relative="1" as="geometry">
                        <mxPoint y="70" as="sourcePoint"/>
                        <mxPoint x="760" y="70" as="targetPoint"/>
                        <Array as="points"/>
                    </mxGeometry>
                </mxCell>
                <mxCell id="10" value="&lt;font style=&quot;font-size: 30px;&quot;&gt;[celsiusNumber]&amp;nbsp;Â°C&lt;/font&gt;" style="text;html=1;align=center;verticalAlign=middle;resizable=0;points=[];autosize=1;strokeColor=none;fillColor=none;" parent="7" vertex="1">
                    <mxGeometry x="10" y="130" width="280" height="50" as="geometry"/>
                </mxCell>
                <mxCell id="14" value="" style="shape=image;verticalLabelPosition=bottom;labelBackgroundColor=default;verticalAlign=top;aspect=fixed;imageAspect=0;image=data:image/png,iVBORw0KGgoAAAANSUhEUgAAAGQAAABkCAYAAABw4pVUAAAGI0lEQVR4nO2be4hUVRzHP/femd3ZdR+ma7m+3QwfVD4qIjOtSCoK0worIygrKIoyECL/yaggMYxEqBRKIikrCMssVEqL0CyhB9o/6Ua6K8u6q/venb0zN86dM+VjH87MufPYfh8Ydpm593d+937v+f3O79xzEARBEARBEARBEARBEARBEARBEARBEARBEARBEARBEARBEM7HMnVPWltbcnZ7rfIK3G2bcbesw6qeONjh04GFwFxgKlANlAI9QD1wBPgB2A38moofVeu3Z3QdilDGFgqDcuBBYDFwaz8eq2OqgCuBJfq774GtwMdAYzau1C6gm5ouD+mn/q0BxOiPG4AN+vynsuHsUBZEPe2fAu8DozK0Va6F+RqoMeRfnwxVQSYBB4B7DNtVPexnHdYCId9ziAPMA+YAo7W/J4HfgH1A879Hui54cfWfyup/AJGAfLoI+AWYCfxu2ni+CjIDeFw/4eP7OaZNh6SNwH6KI2DbKkx9E6AYSSw9EpumR2bGyMeQ9R5wCFgxgBjouP6I7ik7rTGTRuG6bxCP1WAZG80PhGr/S9NG80kQlSxVfH441RO9aM9CZ+rMo/Z1ty3z6mqD8a5vZgErTRrMF0GqtBhXpXV2VxcMKy8rWrnOtq+5Ga++FhzHuJP9sBYYa8pYvghyUCfL9LBtvJbT/qnhFWuxRk/Eazzhf58lHjPVTD4I8iIwIWMrvigtWCWlhJevgt4e6I0acfACGDKCqFHKamPWbAuvswN71lychUvxGuvJUoIfB9xuwlCuBXnSuEW31/9jz5yXECNRm5yBZ7xJzX0mjOS6DrneuEXLhriHXTMDa9yl0HYabAfv9EmIuYm8Eo+BE8YaPhIipRA/V7S0MFK951KQal2BG8fr6sQaUYU95QrcrRuwplyOs2AR1vgpWKEwXjyG9/efxA7uhfq/sC4eB06oj96UEpUmriOXgswy+T7mLFQPUJSUYc+eR/iZNdiTpp53mHP8KLFt7xL79jOsEZdAWWWiF6VHqQnXc/mCSo1MNplq/zwcB6+pAWvUGKxIBK+9PSGUn1c8P4xZZWX+WbE9n+NuXgPFxb6I/u+p01y1fvvITN3OZVIPdvjT24s1ZrKfK/waRYWj5IhLJ3v1vdcTJXTjIpy7lidql/QxkohyKciuQK2r5N3ZBt0d/ReI6vueLuLRXkJLHsWeMx/v5Il0h8qdGXrsk80cMlvXHSN0u5X6qcrt0Fvd/K4OKBru1y7xQz/p0JayW+0m3MmGIPcCzwNX9/FbYEVBSugeZI2tSSR3VeEXpTyDb2QaPkhB1Lh8PbBggGOyUkZfEOrRCBdBpATaTqVj4QsTbgQliFocsDevbviFoMJX+lMtW0y4EIQgqmd8F4DdYFE6nGrEqz3sV/p+TwkXY5WWQWTYYEXjh0CTCf9MCzJMLzArPFRBGI/j3HQ3VuVIvM42PCXQ8SP++xVVz/h5JVl0ns1GU9drWpBnDSy5yQleRzvWhMsIP/3qf83HPbyGY7g7PiC26xO/1/hJ/+xqXkWDPaZ8NlmpFwF1+u1fYZLMIX6lbvnzW1ZJYrQV+3E37qaX1etirKrqpChq+elkwK8oTSwlNVkDPFDQYiiUEGrmV/1VOcON4rW2+O9YQtfeQnjVO4mRWGtzMvk/kRTDFCYFWWzSsbxB3fiYS7ytDadmGuFlzxGvq8VrbljhtTRt9lqaSH5MYDKHTC/k+z4wibmveDSKPf9OQocPvB2vq33TKjt3xn2fiZbM0Nra0ljwIWswVDhTw+FQ0Ut0d6xWM8ZnUlGa+Qy8yZDVY9BWfuJPRnZDtGepqlF8Qc78GMBkyGowuT4pb1E5xY1W4vrRxfhcnMkeknkALRycoGapTRr9wKCtfEeF5z5L9kwxKch+vSfj/0Bg29tMdztzi97ym4+C8s60IF/pTZJDGdU7Xg/q+oJITPcP8QSf8naJVAjqfbbaA74jINu55IWgryvIBQZ36On4YwG2kS2O6+3VrwXdXjYWykX0fsEleouaWnUSNtVugLTqhQs7gVeA7sGaqqgwsppUEARBEARBEARBEARBEARBEARBEARBEARBEARBEARBEIRcA/wDoOOQV9MnNu8AAAAASUVORK5CYII=;" parent="7" vertex="1">
                    <mxGeometry x="590" y="75" width="160" height="160" as="geometry"/>
                </mxCell>
            </root>
        </mxGraphModel>
    </diagram>
</mxfile>